<?xml version="1.0" encoding="UTF-8" standalone="no"?>
<!-- Created with Inkscape (http://www.inkscape.org/) -->

<svg
   version="1.1"
   id="svg1"
   width="1588"
   height="1122.6667"
   viewBox="0 0 1588 1122.6667"
   sodipodi:docname="upload_nioq6jw6zqjo7sxgz7pllsdfug.pdf"
   xmlns:inkscape="http://www.inkscape.org/namespaces/inkscape"
   xmlns:sodipodi="http://sodipodi.sourceforge.net/DTD/sodipodi-0.dtd"
   xmlns="http://www.w3.org/2000/svg"
   xmlns:svg="http://www.w3.org/2000/svg">
  <defs
     id="defs1">
    <clipPath
       clipPathUnits="userSpaceOnUse"
       id="clipPath104">
      <path
         d="M 283,0 H 9637 V 7015 H 283 V 0"
         transform="translate(0,2.0833333e-4)"
         id="path104" />
    </clipPath>
    <clipPath
       clipPathUnits="userSpaceOnUse"
       id="clipPath106">
      <path
         d="M 283,0 H 9637 V 7015 H 283 V 0"
         transform="translate(0,2.0833333e-4)"
         id="path106" />
    </clipPath>
    <clipPath
       clipPathUnits="userSpaceOnUse"
       id="clipPath134">
      <path
         d="M 283,0 H 9637 V 7015 H 283 V 0"
         transform="matrix(1,0,0,-1,-4770,5110)"
         id="path134" />
    </clipPath>
    <clipPath
       clipPathUnits="userSpaceOnUse"
       id="clipPath136">
      <path
         d="M 283,0 H 9637 V 7015 H 283 V 0"
         transform="translate(0,2.0833333e-4)"
         id="path136" />
    </clipPath>
    <clipPath
       clipPathUnits="userSpaceOnUse"
       id="clipPath138">
      <path
         d="M 283,0 H 9637 V 7015 H 283 V 0"
         transform="translate(0,2.0833333e-4)"
         id="path138" />
    </clipPath>
    <clipPath
       clipPathUnits="userSpaceOnUse"
       id="clipPath140">
      <path
         d="M 283,0 H 9637 V 7015 H 283 V 0"
         transform="translate(0,2.0833333e-4)"
         id="path140" />
    </clipPath>
    <clipPath
       clipPathUnits="userSpaceOnUse"
       id="clipPath142">
      <path
         d="M 283,0 H 9637 V 7015 H 283 V 0"
         transform="translate(0,2.0833333e-4)"
         id="path142" />
    </clipPath>
    <clipPath
       clipPathUnits="userSpaceOnUse"
       id="clipPath144">
      <path
         d="M 283,0 H 9637 V 7015 H 283 V 0"
         transform="translate(0,2.0833333e-4)"
         id="path144" />
    </clipPath>
    <clipPath
       clipPathUnits="userSpaceOnUse"
       id="clipPath145">
      <path
         d="M 283,0 H 9637 V 7015 H 283 V 0"
         transform="matrix(0,1,1,0,-2709,-2366)"
         id="path145" />
    </clipPath>
  </defs>
  <sodipodi:namedview
     id="namedview1"
     pagecolor="#ffffff"
     bordercolor="#000000"
     borderopacity="0.25"
     inkscape:showpageshadow="2"
     inkscape:pageopacity="0.0"
     inkscape:pagecheckerboard="0"
     inkscape:deskcolor="#d1d1d1">
    <inkscape:page
       x="0"
       y="0"
       inkscape:label="[1] Model"
       id="page1"
       width="1588"
       height="1122.6667"
       margin="0"
       bleed="0" />
  </sodipodi:namedview>
  <g
     id="layer-oc2"
     inkscape:groupmode="layer"
     inkscape:label="8">
    <path
       id="path1"
       d="m 3166,2268 18,17"
       style="fill:none;stroke:#808080;stroke-width:1;stroke-linecap:round;stroke-linejoin:round;stroke-miterlimit:10;stroke-dasharray:none;stroke-opacity:1"
       transform="matrix(0.16,0,0,-0.16,0,1122.6667)" />
    <path
       id="path2"
       d="m 3200,2223 63,62"
       style="fill:none;stroke:#808080;stroke-width:1;stroke-linecap:round;stroke-linejoin:round;stroke-miterlimit:10;stroke-dasharray:none;stroke-opacity:1"
       transform="matrix(0.16,0,0,-0.16,0,1122.6667)" />
    <path
       id="path3"
       d="m 3234,2178 107,107"
       style="fill:none;stroke:#808080;stroke-width:1;stroke-linecap:round;stroke-linejoin:round;stroke-miterlimit:10;stroke-dasharray:none;stroke-opacity:1"
       transform="matrix(0.16,0,0,-0.16,0,1122.6667)" />
    <path
       id="path4"
       d="m 3303,2168 117,117"
       style="fill:none;stroke:#808080;stroke-width:1;stroke-linecap:round;stroke-linejoin:round;stroke-miterlimit:10;stroke-dasharray:none;stroke-opacity:1"
       transform="matrix(0.16,0,0,-0.16,0,1122.6667)" />
    <path
       id="path5"
       d="m 3382,2168 117,117"
       style="fill:none;stroke:#808080;stroke-width:1;stroke-linecap:round;stroke-linejoin:round;stroke-miterlimit:10;stroke-dasharray:none;stroke-opacity:1"
       transform="matrix(0.16,0,0,-0.16,0,1122.6667)" />
    <path
       id="path6"
       d="m 3461,2168 117,117"
       style="fill:none;stroke:#808080;stroke-width:1;stroke-linecap:round;stroke-linejoin:round;stroke-miterlimit:10;stroke-dasharray:none;stroke-opacity:1"
       transform="matrix(0.16,0,0,-0.16,0,1122.6667)" />
    <path
       id="path7"
       d="m 3540,2168 116,117"
       style="fill:none;stroke:#808080;stroke-width:1;stroke-linecap:round;stroke-linejoin:round;stroke-miterlimit:10;stroke-dasharray:none;stroke-opacity:1"
       transform="matrix(0.16,0,0,-0.16,0,1122.6667)" />
    <path
       id="path8"
       d="m 3618,2168 117,117"
       style="fill:none;stroke:#808080;stroke-width:1;stroke-linecap:round;stroke-linejoin:round;stroke-miterlimit:10;stroke-dasharray:none;stroke-opacity:1"
       transform="matrix(0.16,0,0,-0.16,0,1122.6667)" />
    <path
       id="path9"
       d="m 3697,2168 117,117"
       style="fill:none;stroke:#808080;stroke-width:1;stroke-linecap:round;stroke-linejoin:round;stroke-miterlimit:10;stroke-dasharray:none;stroke-opacity:1"
       transform="matrix(0.16,0,0,-0.16,0,1122.6667)" />
    <path
       id="path10"
       d="m 3776,2168 117,117"
       style="fill:none;stroke:#808080;stroke-width:1;stroke-linecap:round;stroke-linejoin:round;stroke-miterlimit:10;stroke-dasharray:none;stroke-opacity:1"
       transform="matrix(0.16,0,0,-0.16,0,1122.6667)" />
    <path
       id="path11"
       d="m 3855,2168 116,117"
       style="fill:none;stroke:#808080;stroke-width:1;stroke-linecap:round;stroke-linejoin:round;stroke-miterlimit:10;stroke-dasharray:none;stroke-opacity:1"
       transform="matrix(0.16,0,0,-0.16,0,1122.6667)" />
    <path
       id="path12"
       d="m 3933,2168 117,117"
       style="fill:none;stroke:#808080;stroke-width:1;stroke-linecap:round;stroke-linejoin:round;stroke-miterlimit:10;stroke-dasharray:none;stroke-opacity:1"
       transform="matrix(0.16,0,0,-0.16,0,1122.6667)" />
    <path
       id="path13"
       d="m 4012,2168 117,117"
       style="fill:none;stroke:#808080;stroke-width:1;stroke-linecap:round;stroke-linejoin:round;stroke-miterlimit:10;stroke-dasharray:none;stroke-opacity:1"
       transform="matrix(0.16,0,0,-0.16,0,1122.6667)" />
    <path
       id="path14"
       d="m 4091,2168 117,117"
       style="fill:none;stroke:#808080;stroke-width:1;stroke-linecap:round;stroke-linejoin:round;stroke-miterlimit:10;stroke-dasharray:none;stroke-opacity:1"
       transform="matrix(0.16,0,0,-0.16,0,1122.6667)" />
    <path
       id="path15"
       d="m 4170,2168 116,117"
       style="fill:none;stroke:#808080;stroke-width:1;stroke-linecap:round;stroke-linejoin:round;stroke-miterlimit:10;stroke-dasharray:none;stroke-opacity:1"
       transform="matrix(0.16,0,0,-0.16,0,1122.6667)" />
    <path
       id="path16"
       d="m 4248,2168 117,117"
       style="fill:none;stroke:#808080;stroke-width:1;stroke-linecap:round;stroke-linejoin:round;stroke-miterlimit:10;stroke-dasharray:none;stroke-opacity:1"
       transform="matrix(0.16,0,0,-0.16,0,1122.6667)" />
    <path
       id="path17"
       d="m 4327,2168 117,117"
       style="fill:none;stroke:#808080;stroke-width:1;stroke-linecap:round;stroke-linejoin:round;stroke-miterlimit:10;stroke-dasharray:none;stroke-opacity:1"
       transform="matrix(0.16,0,0,-0.16,0,1122.6667)" />
    <path
       id="path18"
       d="m 4406,2168 117,117"
       style="fill:none;stroke:#808080;stroke-width:1;stroke-linecap:round;stroke-linejoin:round;stroke-miterlimit:10;stroke-dasharray:none;stroke-opacity:1"
       transform="matrix(0.16,0,0,-0.16,0,1122.6667)" />
    <path
       id="path19"
       d="m 4485,2168 116,117"
       style="fill:none;stroke:#808080;stroke-width:1;stroke-linecap:round;stroke-linejoin:round;stroke-miterlimit:10;stroke-dasharray:none;stroke-opacity:1"
       transform="matrix(0.16,0,0,-0.16,0,1122.6667)" />
    <path
       id="path20"
       d="m 4563,2168 117,117"
       style="fill:none;stroke:#808080;stroke-width:1;stroke-linecap:round;stroke-linejoin:round;stroke-miterlimit:10;stroke-dasharray:none;stroke-opacity:1"
       transform="matrix(0.16,0,0,-0.16,0,1122.6667)" />
    <path
       id="path21"
       d="m 4642,2168 117,117"
       style="fill:none;stroke:#808080;stroke-width:1;stroke-linecap:round;stroke-linejoin:round;stroke-miterlimit:10;stroke-dasharray:none;stroke-opacity:1"
       transform="matrix(0.16,0,0,-0.16,0,1122.6667)" />
    <path
       id="path22"
       d="m 4721,2168 117,117"
       style="fill:none;stroke:#808080;stroke-width:1;stroke-linecap:round;stroke-linejoin:round;stroke-miterlimit:10;stroke-dasharray:none;stroke-opacity:1"
       transform="matrix(0.16,0,0,-0.16,0,1122.6667)" />
    <path
       id="path23"
       d="m 4800,2168 116,117"
       style="fill:none;stroke:#808080;stroke-width:1;stroke-linecap:round;stroke-linejoin:round;stroke-miterlimit:10;stroke-dasharray:none;stroke-opacity:1"
       transform="matrix(0.16,0,0,-0.16,0,1122.6667)" />
    <path
       id="path24"
       d="m 4878,2168 117,117"
       style="fill:none;stroke:#808080;stroke-width:1;stroke-linecap:round;stroke-linejoin:round;stroke-miterlimit:10;stroke-dasharray:none;stroke-opacity:1"
       transform="matrix(0.16,0,0,-0.16,0,1122.6667)" />
    <path
       id="path25"
       d="m 4957,2168 117,117"
       style="fill:none;stroke:#808080;stroke-width:1;stroke-linecap:round;stroke-linejoin:round;stroke-miterlimit:10;stroke-dasharray:none;stroke-opacity:1"
       transform="matrix(0.16,0,0,-0.16,0,1122.6667)" />
    <path
       id="path26"
       d="m 5036,2168 117,117"
       style="fill:none;stroke:#808080;stroke-width:1;stroke-linecap:round;stroke-linejoin:round;stroke-miterlimit:10;stroke-dasharray:none;stroke-opacity:1"
       transform="matrix(0.16,0,0,-0.16,0,1122.6667)" />
    <path
       id="path27"
       d="m 5115,2168 117,117"
       style="fill:none;stroke:#808080;stroke-width:1;stroke-linecap:round;stroke-linejoin:round;stroke-miterlimit:10;stroke-dasharray:none;stroke-opacity:1"
       transform="matrix(0.16,0,0,-0.16,0,1122.6667)" />
    <path
       id="path28"
       d="m 5193,2168 117,117"
       style="fill:none;stroke:#808080;stroke-width:1;stroke-linecap:round;stroke-linejoin:round;stroke-miterlimit:10;stroke-dasharray:none;stroke-opacity:1"
       transform="matrix(0.16,0,0,-0.16,0,1122.6667)" />
    <path
       id="path29"
       d="m 5272,2168 117,117"
       style="fill:none;stroke:#808080;stroke-width:1;stroke-linecap:round;stroke-linejoin:round;stroke-miterlimit:10;stroke-dasharray:none;stroke-opacity:1"
       transform="matrix(0.16,0,0,-0.16,0,1122.6667)" />
    <path
       id="path30"
       d="m 5351,2168 117,117"
       style="fill:none;stroke:#808080;stroke-width:1;stroke-linecap:round;stroke-linejoin:round;stroke-miterlimit:10;stroke-dasharray:none;stroke-opacity:1"
       transform="matrix(0.16,0,0,-0.16,0,1122.6667)" />
    <path
       id="path31"
       d="m 5430,2168 117,117"
       style="fill:none;stroke:#808080;stroke-width:1;stroke-linecap:round;stroke-linejoin:round;stroke-miterlimit:10;stroke-dasharray:none;stroke-opacity:1"
       transform="matrix(0.16,0,0,-0.16,0,1122.6667)" />
    <path
       id="path32"
       d="m 5508,2168 117,117"
       style="fill:none;stroke:#808080;stroke-width:1;stroke-linecap:round;stroke-linejoin:round;stroke-miterlimit:10;stroke-dasharray:none;stroke-opacity:1"
       transform="matrix(0.16,0,0,-0.16,0,1122.6667)" />
    <path
       id="path33"
       d="m 5587,2168 117,117"
       style="fill:none;stroke:#808080;stroke-width:1;stroke-linecap:round;stroke-linejoin:round;stroke-miterlimit:10;stroke-dasharray:none;stroke-opacity:1"
       transform="matrix(0.16,0,0,-0.16,0,1122.6667)" />
    <path
       id="path34"
       d="m 5666,2168 117,117"
       style="fill:none;stroke:#808080;stroke-width:1;stroke-linecap:round;stroke-linejoin:round;stroke-miterlimit:10;stroke-dasharray:none;stroke-opacity:1"
       transform="matrix(0.16,0,0,-0.16,0,1122.6667)" />
    <path
       id="path35"
       d="m 5745,2168 117,117"
       style="fill:none;stroke:#808080;stroke-width:1;stroke-linecap:round;stroke-linejoin:round;stroke-miterlimit:10;stroke-dasharray:none;stroke-opacity:1"
       transform="matrix(0.16,0,0,-0.16,0,1122.6667)" />
    <path
       id="path36"
       d="m 5823,2168 117,117"
       style="fill:none;stroke:#808080;stroke-width:1;stroke-linecap:round;stroke-linejoin:round;stroke-miterlimit:10;stroke-dasharray:none;stroke-opacity:1"
       transform="matrix(0.16,0,0,-0.16,0,1122.6667)" />
    <path
       id="path37"
       d="m 5902,2168 117,117"
       style="fill:none;stroke:#808080;stroke-width:1;stroke-linecap:round;stroke-linejoin:round;stroke-miterlimit:10;stroke-dasharray:none;stroke-opacity:1"
       transform="matrix(0.16,0,0,-0.16,0,1122.6667)" />
    <path
       id="path38"
       d="m 5981,2168 117,117"
       style="fill:none;stroke:#808080;stroke-width:1;stroke-linecap:round;stroke-linejoin:round;stroke-miterlimit:10;stroke-dasharray:none;stroke-opacity:1"
       transform="matrix(0.16,0,0,-0.16,0,1122.6667)" />
    <path
       id="path39"
       d="m 6060,2168 117,117"
       style="fill:none;stroke:#808080;stroke-width:1;stroke-linecap:round;stroke-linejoin:round;stroke-miterlimit:10;stroke-dasharray:none;stroke-opacity:1"
       transform="matrix(0.16,0,0,-0.16,0,1122.6667)" />
    <path
       id="path40"
       d="m 6138,2168 117,117"
       style="fill:none;stroke:#808080;stroke-width:1;stroke-linecap:round;stroke-linejoin:round;stroke-miterlimit:10;stroke-dasharray:none;stroke-opacity:1"
       transform="matrix(0.16,0,0,-0.16,0,1122.6667)" />
    <path
       id="path41"
       d="m 6217,2168 117,117"
       style="fill:none;stroke:#808080;stroke-width:1;stroke-linecap:round;stroke-linejoin:round;stroke-miterlimit:10;stroke-dasharray:none;stroke-opacity:1"
       transform="matrix(0.16,0,0,-0.16,0,1122.6667)" />
    <path
       id="path42"
       d="m 6296,2168 117,117"
       style="fill:none;stroke:#808080;stroke-width:1;stroke-linecap:round;stroke-linejoin:round;stroke-miterlimit:10;stroke-dasharray:none;stroke-opacity:1"
       transform="matrix(0.16,0,0,-0.16,0,1122.6667)" />
    <path
       id="path43"
       d="m 6375,2168 117,117"
       style="fill:none;stroke:#808080;stroke-width:1;stroke-linecap:round;stroke-linejoin:round;stroke-miterlimit:10;stroke-dasharray:none;stroke-opacity:1"
       transform="matrix(0.16,0,0,-0.16,0,1122.6667)" />
    <path
       id="path44"
       d="m 6453,2168 117,117"
       style="fill:none;stroke:#808080;stroke-width:1;stroke-linecap:round;stroke-linejoin:round;stroke-miterlimit:10;stroke-dasharray:none;stroke-opacity:1"
       transform="matrix(0.16,0,0,-0.16,0,1122.6667)" />
    <path
       id="path45"
       d="m 6532,2168 117,117"
       style="fill:none;stroke:#808080;stroke-width:1;stroke-linecap:round;stroke-linejoin:round;stroke-miterlimit:10;stroke-dasharray:none;stroke-opacity:1"
       transform="matrix(0.16,0,0,-0.16,0,1122.6667)" />
    <path
       id="path46"
       d="m 6611,2168 117,117"
       style="fill:none;stroke:#808080;stroke-width:1;stroke-linecap:round;stroke-linejoin:round;stroke-miterlimit:10;stroke-dasharray:none;stroke-opacity:1"
       transform="matrix(0.16,0,0,-0.16,0,1122.6667)" />
    <path
       id="path47"
       d="m 3178,2253 32,32"
       style="fill:none;stroke:#808080;stroke-width:1;stroke-linecap:round;stroke-linejoin:round;stroke-miterlimit:10;stroke-dasharray:none;stroke-opacity:1"
       transform="matrix(0.16,0,0,-0.16,0,1122.6667)" />
    <path
       id="path48"
       d="m 3211,2208 78,77"
       style="fill:none;stroke:#808080;stroke-width:1;stroke-linecap:round;stroke-linejoin:round;stroke-miterlimit:10;stroke-dasharray:none;stroke-opacity:1"
       transform="matrix(0.16,0,0,-0.16,0,1122.6667)" />
    <path
       id="path49"
       d="m 3251,2168 117,117"
       style="fill:none;stroke:#808080;stroke-width:1;stroke-linecap:round;stroke-linejoin:round;stroke-miterlimit:10;stroke-dasharray:none;stroke-opacity:1"
       transform="matrix(0.16,0,0,-0.16,0,1122.6667)" />
    <path
       id="path50"
       d="m 3330,2168 116,117"
       style="fill:none;stroke:#808080;stroke-width:1;stroke-linecap:round;stroke-linejoin:round;stroke-miterlimit:10;stroke-dasharray:none;stroke-opacity:1"
       transform="matrix(0.16,0,0,-0.16,0,1122.6667)" />
    <path
       id="path51"
       d="m 3408,2168 117,117"
       style="fill:none;stroke:#808080;stroke-width:1;stroke-linecap:round;stroke-linejoin:round;stroke-miterlimit:10;stroke-dasharray:none;stroke-opacity:1"
       transform="matrix(0.16,0,0,-0.16,0,1122.6667)" />
    <path
       id="path52"
       d="m 3487,2168 117,117"
       style="fill:none;stroke:#808080;stroke-width:1;stroke-linecap:round;stroke-linejoin:round;stroke-miterlimit:10;stroke-dasharray:none;stroke-opacity:1"
       transform="matrix(0.16,0,0,-0.16,0,1122.6667)" />
    <path
       id="path53"
       d="m 3566,2168 117,117"
       style="fill:none;stroke:#808080;stroke-width:1;stroke-linecap:round;stroke-linejoin:round;stroke-miterlimit:10;stroke-dasharray:none;stroke-opacity:1"
       transform="matrix(0.16,0,0,-0.16,0,1122.6667)" />
    <path
       id="path54"
       d="m 3645,2168 116,117"
       style="fill:none;stroke:#808080;stroke-width:1;stroke-linecap:round;stroke-linejoin:round;stroke-miterlimit:10;stroke-dasharray:none;stroke-opacity:1"
       transform="matrix(0.16,0,0,-0.16,0,1122.6667)" />
    <path
       id="path55"
       d="m 3723,2168 117,117"
       style="fill:none;stroke:#808080;stroke-width:1;stroke-linecap:round;stroke-linejoin:round;stroke-miterlimit:10;stroke-dasharray:none;stroke-opacity:1"
       transform="matrix(0.16,0,0,-0.16,0,1122.6667)" />
    <path
       id="path56"
       d="m 3802,2168 117,117"
       style="fill:none;stroke:#808080;stroke-width:1;stroke-linecap:round;stroke-linejoin:round;stroke-miterlimit:10;stroke-dasharray:none;stroke-opacity:1"
       transform="matrix(0.16,0,0,-0.16,0,1122.6667)" />
    <path
       id="path57"
       d="m 3881,2168 117,117"
       style="fill:none;stroke:#808080;stroke-width:1;stroke-linecap:round;stroke-linejoin:round;stroke-miterlimit:10;stroke-dasharray:none;stroke-opacity:1"
       transform="matrix(0.16,0,0,-0.16,0,1122.6667)" />
    <path
       id="path58"
       d="m 3960,2168 116,117"
       style="fill:none;stroke:#808080;stroke-width:1;stroke-linecap:round;stroke-linejoin:round;stroke-miterlimit:10;stroke-dasharray:none;stroke-opacity:1"
       transform="matrix(0.16,0,0,-0.16,0,1122.6667)" />
    <path
       id="path59"
       d="m 4038,2168 117,117"
       style="fill:none;stroke:#808080;stroke-width:1;stroke-linecap:round;stroke-linejoin:round;stroke-miterlimit:10;stroke-dasharray:none;stroke-opacity:1"
       transform="matrix(0.16,0,0,-0.16,0,1122.6667)" />
    <path
       id="path60"
       d="m 4117,2168 117,117"
       style="fill:none;stroke:#808080;stroke-width:1;stroke-linecap:round;stroke-linejoin:round;stroke-miterlimit:10;stroke-dasharray:none;stroke-opacity:1"
       transform="matrix(0.16,0,0,-0.16,0,1122.6667)" />
    <path
       id="path61"
       d="m 4196,2168 117,117"
       style="fill:none;stroke:#808080;stroke-width:1;stroke-linecap:round;stroke-linejoin:round;stroke-miterlimit:10;stroke-dasharray:none;stroke-opacity:1"
       transform="matrix(0.16,0,0,-0.16,0,1122.6667)" />
    <path
       id="path62"
       d="m 4275,2168 116,117"
       style="fill:none;stroke:#808080;stroke-width:1;stroke-linecap:round;stroke-linejoin:round;stroke-miterlimit:10;stroke-dasharray:none;stroke-opacity:1"
       transform="matrix(0.16,0,0,-0.16,0,1122.6667)" />
    <path
       id="path63"
       d="m 4353,2168 117,117"
       style="fill:none;stroke:#808080;stroke-width:1;stroke-linecap:round;stroke-linejoin:round;stroke-miterlimit:10;stroke-dasharray:none;stroke-opacity:1"
       transform="matrix(0.16,0,0,-0.16,0,1122.6667)" />
    <path
       id="path64"
       d="m 4432,2168 117,117"
       style="fill:none;stroke:#808080;stroke-width:1;stroke-linecap:round;stroke-linejoin:round;stroke-miterlimit:10;stroke-dasharray:none;stroke-opacity:1"
       transform="matrix(0.16,0,0,-0.16,0,1122.6667)" />
    <path
       id="path65"
       d="m 4511,2168 117,117"
       style="fill:none;stroke:#808080;stroke-width:1;stroke-linecap:round;stroke-linejoin:round;stroke-miterlimit:10;stroke-dasharray:none;stroke-opacity:1"
       transform="matrix(0.16,0,0,-0.16,0,1122.6667)" />
    <path
       id="path66"
       d="m 4590,2168 116,117"
       style="fill:none;stroke:#808080;stroke-width:1;stroke-linecap:round;stroke-linejoin:round;stroke-miterlimit:10;stroke-dasharray:none;stroke-opacity:1"
       transform="matrix(0.16,0,0,-0.16,0,1122.6667)" />
    <path
       id="path67"
       d="m 4668,2168 117,117"
       style="fill:none;stroke:#808080;stroke-width:1;stroke-linecap:round;stroke-linejoin:round;stroke-miterlimit:10;stroke-dasharray:none;stroke-opacity:1"
       transform="matrix(0.16,0,0,-0.16,0,1122.6667)" />
    <path
       id="path68"
       d="m 4747,2168 117,117"
       style="fill:none;stroke:#808080;stroke-width:1;stroke-linecap:round;stroke-linejoin:round;stroke-miterlimit:10;stroke-dasharray:none;stroke-opacity:1"
       transform="matrix(0.16,0,0,-0.16,0,1122.6667)" />
    <path
       id="path69"
       d="m 4826,2168 117,117"
       style="fill:none;stroke:#808080;stroke-width:1;stroke-linecap:round;stroke-linejoin:round;stroke-miterlimit:10;stroke-dasharray:none;stroke-opacity:1"
       transform="matrix(0.16,0,0,-0.16,0,1122.6667)" />
    <path
       id="path70"
       d="m 4905,2168 116,117"
       style="fill:none;stroke:#808080;stroke-width:1;stroke-linecap:round;stroke-linejoin:round;stroke-miterlimit:10;stroke-dasharray:none;stroke-opacity:1"
       transform="matrix(0.16,0,0,-0.16,0,1122.6667)" />
    <path
       id="path71"
       d="m 4983,2168 117,117"
       style="fill:none;stroke:#808080;stroke-width:1;stroke-linecap:round;stroke-linejoin:round;stroke-miterlimit:10;stroke-dasharray:none;stroke-opacity:1"
       transform="matrix(0.16,0,0,-0.16,0,1122.6667)" />
    <path
       id="path72"
       d="m 5062,2168 117,117"
       style="fill:none;stroke:#808080;stroke-width:1;stroke-linecap:round;stroke-linejoin:round;stroke-miterlimit:10;stroke-dasharray:none;stroke-opacity:1"
       transform="matrix(0.16,0,0,-0.16,0,1122.6667)" />
    <path
       id="path73"
       d="m 5141,2168 117,117"
       style="fill:none;stroke:#808080;stroke-width:1;stroke-linecap:round;stroke-linejoin:round;stroke-miterlimit:10;stroke-dasharray:none;stroke-opacity:1"
       transform="matrix(0.16,0,0,-0.16,0,1122.6667)" />
    <path
       id="path74"
       d="m 5220,2168 117,117"
       style="fill:none;stroke:#808080;stroke-width:1;stroke-linecap:round;stroke-linejoin:round;stroke-miterlimit:10;stroke-dasharray:none;stroke-opacity:1"
       transform="matrix(0.16,0,0,-0.16,0,1122.6667)" />
    <path
       id="path75"
       d="m 5298,2168 117,117"
       style="fill:none;stroke:#808080;stroke-width:1;stroke-linecap:round;stroke-linejoin:round;stroke-miterlimit:10;stroke-dasharray:none;stroke-opacity:1"
       transform="matrix(0.16,0,0,-0.16,0,1122.6667)" />
    <path
       id="path76"
       d="m 5377,2168 117,117"
       style="fill:none;stroke:#808080;stroke-width:1;stroke-linecap:round;stroke-linejoin:round;stroke-miterlimit:10;stroke-dasharray:none;stroke-opacity:1"
       transform="matrix(0.16,0,0,-0.16,0,1122.6667)" />
    <path
       id="path77"
       d="m 5456,2168 117,117"
       style="fill:none;stroke:#808080;stroke-width:1;stroke-linecap:round;stroke-linejoin:round;stroke-miterlimit:10;stroke-dasharray:none;stroke-opacity:1"
       transform="matrix(0.16,0,0,-0.16,0,1122.6667)" />
    <path
       id="path78"
       d="m 5535,2168 117,117"
       style="fill:none;stroke:#808080;stroke-width:1;stroke-linecap:round;stroke-linejoin:round;stroke-miterlimit:10;stroke-dasharray:none;stroke-opacity:1"
       transform="matrix(0.16,0,0,-0.16,0,1122.6667)" />
    <path
       id="path79"
       d="m 5613,2168 117,117"
       style="fill:none;stroke:#808080;stroke-width:1;stroke-linecap:round;stroke-linejoin:round;stroke-miterlimit:10;stroke-dasharray:none;stroke-opacity:1"
       transform="matrix(0.16,0,0,-0.16,0,1122.6667)" />
    <path
       id="path80"
       d="m 5692,2168 117,117"
       style="fill:none;stroke:#808080;stroke-width:1;stroke-linecap:round;stroke-linejoin:round;stroke-miterlimit:10;stroke-dasharray:none;stroke-opacity:1"
       transform="matrix(0.16,0,0,-0.16,0,1122.6667)" />
    <path
       id="path81"
       d="m 5771,2168 117,117"
       style="fill:none;stroke:#808080;stroke-width:1;stroke-linecap:round;stroke-linejoin:round;stroke-miterlimit:10;stroke-dasharray:none;stroke-opacity:1"
       transform="matrix(0.16,0,0,-0.16,0,1122.6667)" />
    <path
       id="path82"
       d="m 5850,2168 117,117"
       style="fill:none;stroke:#808080;stroke-width:1;stroke-linecap:round;stroke-linejoin:round;stroke-miterlimit:10;stroke-dasharray:none;stroke-opacity:1"
       transform="matrix(0.16,0,0,-0.16,0,1122.6667)" />
    <path
       id="path83"
       d="m 5928,2168 117,117"
       style="fill:none;stroke:#808080;stroke-width:1;stroke-linecap:round;stroke-linejoin:round;stroke-miterlimit:10;stroke-dasharray:none;stroke-opacity:1"
       transform="matrix(0.16,0,0,-0.16,0,1122.6667)" />
    <path
       id="path84"
       d="m 6007,2168 117,117"
       style="fill:none;stroke:#808080;stroke-width:1;stroke-linecap:round;stroke-linejoin:round;stroke-miterlimit:10;stroke-dasharray:none;stroke-opacity:1"
       transform="matrix(0.16,0,0,-0.16,0,1122.6667)" />
    <path
       id="path85"
       d="m 6086,2168 117,117"
       style="fill:none;stroke:#808080;stroke-width:1;stroke-linecap:round;stroke-linejoin:round;stroke-miterlimit:10;stroke-dasharray:none;stroke-opacity:1"
       transform="matrix(0.16,0,0,-0.16,0,1122.6667)" />
    <path
       id="path86"
       d="m 6165,2168 117,117"
       style="fill:none;stroke:#808080;stroke-width:1;stroke-linecap:round;stroke-linejoin:round;stroke-miterlimit:10;stroke-dasharray:none;stroke-opacity:1"
       transform="matrix(0.16,0,0,-0.16,0,1122.6667)" />
    <path
       id="path87"
       d="m 6243,2168 117,117"
       style="fill:none;stroke:#808080;stroke-width:1;stroke-linecap:round;stroke-linejoin:round;stroke-miterlimit:10;stroke-dasharray:none;stroke-opacity:1"
       transform="matrix(0.16,0,0,-0.16,0,1122.6667)" />
    <path
       id="path88"
       d="m 6322,2168 117,117"
       style="fill:none;stroke:#808080;stroke-width:1;stroke-linecap:round;stroke-linejoin:round;stroke-miterlimit:10;stroke-dasharray:none;stroke-opacity:1"
       transform="matrix(0.16,0,0,-0.16,0,1122.6667)" />
    <path
       id="path89"
       d="m 6401,2168 117,117"
       style="fill:none;stroke:#808080;stroke-width:1;stroke-linecap:round;stroke-linejoin:round;stroke-miterlimit:10;stroke-dasharray:none;stroke-opacity:1"
       transform="matrix(0.16,0,0,-0.16,0,1122.6667)" />
    <path
       id="path90"
       d="m 6480,2168 117,117"
       style="fill:none;stroke:#808080;stroke-width:1;stroke-linecap:round;stroke-linejoin:round;stroke-miterlimit:10;stroke-dasharray:none;stroke-opacity:1"
       transform="matrix(0.16,0,0,-0.16,0,1122.6667)" />
    <path
       id="path91"
       d="m 6558,2168 117,117"
       style="fill:none;stroke:#808080;stroke-width:1;stroke-linecap:round;stroke-linejoin:round;stroke-miterlimit:10;stroke-dasharray:none;stroke-opacity:1"
       transform="matrix(0.16,0,0,-0.16,0,1122.6667)" />
    <path
       id="path92"
       d="m 6637,2168 117,117"
       style="fill:none;stroke:#808080;stroke-width:1;stroke-linecap:round;stroke-linejoin:round;stroke-miterlimit:10;stroke-dasharray:none;stroke-opacity:1"
       transform="matrix(0.16,0,0,-0.16,0,1122.6667)" />
  </g>
  <g
     id="layer-oc3"
     inkscape:groupmode="layer"
     inkscape:label="EQ">
    <path
       id="path93"
       d="M 3241,2168 H 6678"
       style="fill:none;stroke:#000000;stroke-width:8;stroke-linecap:round;stroke-linejoin:round;stroke-miterlimit:10;stroke-dasharray:none;stroke-opacity:1"
       transform="matrix(0.16,0,0,-0.16,0,1122.6667)" />
    <path
       id="path94"
       d="M 3153,2285 V 4144"
       style="fill:none;stroke:#000000;stroke-width:8;stroke-linecap:round;stroke-linejoin:round;stroke-miterlimit:10;stroke-dasharray:none;stroke-opacity:1"
       transform="matrix(0.16,0,0,-0.16,0,1122.6667)" />
    <path
       id="path95"
       d="m 6766,2285 v 681"
       style="fill:none;stroke:#000000;stroke-width:8;stroke-linecap:round;stroke-linejoin:round;stroke-miterlimit:10;stroke-dasharray:none;stroke-opacity:1"
       transform="matrix(0.16,0,0,-0.16,0,1122.6667)" />
    <path
       id="path96"
       d="m 3241,4261 h 733"
       style="fill:none;stroke:#000000;stroke-width:8;stroke-linecap:round;stroke-linejoin:round;stroke-miterlimit:10;stroke-dasharray:none;stroke-opacity:1"
       transform="matrix(0.16,0,0,-0.16,0,1122.6667)" />
    <path
       id="path97"
       d="M 6678,3083 H 6472"
       style="fill:none;stroke:#000000;stroke-width:8;stroke-linecap:round;stroke-linejoin:round;stroke-miterlimit:10;stroke-dasharray:none;stroke-opacity:1"
       transform="matrix(0.16,0,0,-0.16,0,1122.6667)" />
    <path
       id="path98"
       d="M 5832.0195,3273.9731 C 6022.3906,3149.3684 6244.9751,3083 6472.5,3083"
       style="fill:none;stroke:#000000;stroke-width:8;stroke-linecap:round;stroke-linejoin:round;stroke-miterlimit:10;stroke-dasharray:none;stroke-opacity:1"
       transform="matrix(0.16,0,0,-0.16,0,1122.6667)" />
    <path
       id="path99"
       d="M 5831,3274 4614,4070"
       style="fill:none;stroke:#000000;stroke-width:8;stroke-linecap:round;stroke-linejoin:round;stroke-miterlimit:10;stroke-dasharray:none;stroke-opacity:1"
       transform="matrix(0.16,0,0,-0.16,0,1122.6667)" />
    <path
       id="path100"
       d="M 4614.9805,4071.0269 C 4424.6094,4195.6318 4202.0249,4262 3974.5,4262"
       style="fill:none;stroke:#000000;stroke-width:8;stroke-linecap:round;stroke-linejoin:round;stroke-miterlimit:10;stroke-dasharray:none;stroke-opacity:1"
       transform="matrix(0.16,0,0,-0.16,0,1122.6667)" />
    <path
       id="path103"
       d="m 3153,2285 88,-117"
       style="fill:none;stroke:#000000;stroke-width:8;stroke-linecap:round;stroke-linejoin:round;stroke-miterlimit:10;stroke-dasharray:none;stroke-opacity:1"
       transform="matrix(0.16,0,0,-0.16,0,1122.6667)"
       clip-path="url(#clipPath104)" />
    <path
       id="path105"
       d="m 3241,3215 v 1046 l -88,-117"
       style="fill:none;stroke:#000000;stroke-width:8;stroke-linecap:round;stroke-linejoin:round;stroke-miterlimit:10;stroke-dasharray:none;stroke-opacity:1"
       transform="matrix(0.16,0,0,-0.16,0,1122.6667)"
       clip-path="url(#clipPath106)" />
    <path
       id="path112"
       d="m 6766,2285 -88,-117"
       style="fill:none;stroke:#000000;stroke-width:8;stroke-linecap:round;stroke-linejoin:round;stroke-miterlimit:10;stroke-dasharray:none;stroke-opacity:1"
       transform="matrix(0.16,0,0,-0.16,0,1122.6667)" />
    <path
       id="path113"
       d="m 6766,2966 -88,117"
       style="fill:none;stroke:#000000;stroke-width:8;stroke-linecap:round;stroke-linejoin:round;stroke-miterlimit:10;stroke-dasharray:none;stroke-opacity:1"
       transform="matrix(0.16,0,0,-0.16,0,1122.6667)" />
    <path
       id="path127"
       d="M 6678,3083 V 2625"
       style="fill:none;stroke:#000000;stroke-width:8;stroke-linecap:round;stroke-linejoin:round;stroke-miterlimit:10;stroke-dasharray:none;stroke-opacity:1"
       transform="matrix(0.16,0,0,-0.16,0,1122.6667)" />
  </g>
  <g
     id="layer-oc4"
     inkscape:groupmode="layer"
     inkscape:label="0">
    <path
       id="path101"
       d="M 4322,4094 V 3215"
       style="fill:none;stroke:#000000;stroke-width:6;stroke-linecap:round;stroke-linejoin:round;stroke-miterlimit:10;stroke-dasharray:none;stroke-opacity:1"
       transform="matrix(0.16,0,0,-0.16,0,1122.6667)" />
    <path
       id="path102"
       d="M 6123,3083 V 2625"
       style="fill:none;stroke:#000000;stroke-width:6;stroke-linecap:round;stroke-linejoin:round;stroke-miterlimit:10;stroke-dasharray:none;stroke-opacity:1"
       transform="matrix(0.16,0,0,-0.16,0,1122.6667)" />
    <path
       id="path128"
       d="M 3153,2285 H 6766"
       style="fill:none;stroke:#000000;stroke-width:6;stroke-linecap:round;stroke-linejoin:round;stroke-miterlimit:10;stroke-dasharray:none;stroke-opacity:1"
       transform="matrix(0.16,0,0,-0.16,0,1122.6667)" />
  </g>
  <g
     id="layer-oc5"
     inkscape:groupmode="layer"
     inkscape:label="CE">
    <path
       id="path107"
       d="m 3153,3215 h 355"
       style="fill:none;stroke:#000000;stroke-width:2;stroke-linecap:round;stroke-linejoin:round;stroke-miterlimit:10;stroke-dasharray:none;stroke-opacity:1"
       transform="matrix(0.16,0,0,-0.16,0,1122.6667)" />
    <path
       id="path108"
       d="m 3583,3215 h 74"
       style="fill:none;stroke:#000000;stroke-width:2;stroke-linecap:round;stroke-linejoin:round;stroke-miterlimit:10;stroke-dasharray:none;stroke-opacity:1"
       transform="matrix(0.16,0,0,-0.16,0,1122.6667)" />
    <path
       id="path109"
       d="m 3731,3215 h 371"
       style="fill:none;stroke:#000000;stroke-width:2;stroke-linecap:round;stroke-linejoin:round;stroke-miterlimit:10;stroke-dasharray:none;stroke-opacity:1"
       transform="matrix(0.16,0,0,-0.16,0,1122.6667)" />
    <path
       id="path110"
       d="m 4177,3215 h 74"
       style="fill:none;stroke:#000000;stroke-width:2;stroke-linecap:round;stroke-linejoin:round;stroke-miterlimit:10;stroke-dasharray:none;stroke-opacity:1"
       transform="matrix(0.16,0,0,-0.16,0,1122.6667)" />
    <path
       id="path111"
       d="m 4325,3215 h 356"
       style="fill:none;stroke:#000000;stroke-width:2;stroke-linecap:round;stroke-linejoin:round;stroke-miterlimit:10;stroke-dasharray:none;stroke-opacity:1"
       transform="matrix(0.16,0,0,-0.16,0,1122.6667)" />
    <path
       id="path114"
       d="M 6766,2625 H 6556"
       style="fill:none;stroke:#000000;stroke-width:2;stroke-linecap:round;stroke-linejoin:round;stroke-miterlimit:10;stroke-dasharray:none;stroke-opacity:1"
       transform="matrix(0.16,0,0,-0.16,0,1122.6667)" />
    <path
       id="path115"
       d="m 6482,2625 h -75"
       style="fill:none;stroke:#000000;stroke-width:2;stroke-linecap:round;stroke-linejoin:round;stroke-miterlimit:10;stroke-dasharray:none;stroke-opacity:1"
       transform="matrix(0.16,0,0,-0.16,0,1122.6667)" />
    <path
       id="path116"
       d="M 6333,2625 H 5962"
       style="fill:none;stroke:#000000;stroke-width:2;stroke-linecap:round;stroke-linejoin:round;stroke-miterlimit:10;stroke-dasharray:none;stroke-opacity:1"
       transform="matrix(0.16,0,0,-0.16,0,1122.6667)" />
    <path
       id="path117"
       d="m 5888,2625 h -75"
       style="fill:none;stroke:#000000;stroke-width:2;stroke-linecap:round;stroke-linejoin:round;stroke-miterlimit:10;stroke-dasharray:none;stroke-opacity:1"
       transform="matrix(0.16,0,0,-0.16,0,1122.6667)" />
    <path
       id="path118"
       d="M 5739,2625 H 5368"
       style="fill:none;stroke:#000000;stroke-width:2;stroke-linecap:round;stroke-linejoin:round;stroke-miterlimit:10;stroke-dasharray:none;stroke-opacity:1"
       transform="matrix(0.16,0,0,-0.16,0,1122.6667)" />
    <path
       id="path119"
       d="m 5294,2625 h -75"
       style="fill:none;stroke:#000000;stroke-width:2;stroke-linecap:round;stroke-linejoin:round;stroke-miterlimit:10;stroke-dasharray:none;stroke-opacity:1"
       transform="matrix(0.16,0,0,-0.16,0,1122.6667)" />
    <path
       id="path120"
       d="M 5145,2625 H 4774"
       style="fill:none;stroke:#000000;stroke-width:2;stroke-linecap:round;stroke-linejoin:round;stroke-miterlimit:10;stroke-dasharray:none;stroke-opacity:1"
       transform="matrix(0.16,0,0,-0.16,0,1122.6667)" />
    <path
       id="path121"
       d="m 4700,2625 h -75"
       style="fill:none;stroke:#000000;stroke-width:2;stroke-linecap:round;stroke-linejoin:round;stroke-miterlimit:10;stroke-dasharray:none;stroke-opacity:1"
       transform="matrix(0.16,0,0,-0.16,0,1122.6667)" />
    <path
       id="path122"
       d="M 4551,2625 H 4180"
       style="fill:none;stroke:#000000;stroke-width:2;stroke-linecap:round;stroke-linejoin:round;stroke-miterlimit:10;stroke-dasharray:none;stroke-opacity:1"
       transform="matrix(0.16,0,0,-0.16,0,1122.6667)" />
    <path
       id="path123"
       d="m 4106,2625 h -75"
       style="fill:none;stroke:#000000;stroke-width:2;stroke-linecap:round;stroke-linejoin:round;stroke-miterlimit:10;stroke-dasharray:none;stroke-opacity:1"
       transform="matrix(0.16,0,0,-0.16,0,1122.6667)" />
    <path
       id="path124"
       d="M 3957,2625 H 3586"
       style="fill:none;stroke:#000000;stroke-width:2;stroke-linecap:round;stroke-linejoin:round;stroke-miterlimit:10;stroke-dasharray:none;stroke-opacity:1"
       transform="matrix(0.16,0,0,-0.16,0,1122.6667)" />
    <path
       id="path125"
       d="m 3512,2625 h -75"
       style="fill:none;stroke:#000000;stroke-width:2;stroke-linecap:round;stroke-linejoin:round;stroke-miterlimit:10;stroke-dasharray:none;stroke-opacity:1"
       transform="matrix(0.16,0,0,-0.16,0,1122.6667)" />
    <path
       id="path126"
       d="M 3363,2625 H 3153"
       style="fill:none;stroke:#000000;stroke-width:2;stroke-linecap:round;stroke-linejoin:round;stroke-miterlimit:10;stroke-dasharray:none;stroke-opacity:1"
       transform="matrix(0.16,0,0,-0.16,0,1122.6667)" />
  </g>
  <g
     id="layer-oc6"
     inkscape:groupmode="layer"
     inkscape:label="Dim-ver">
    <path
       id="path129"
       d="m 3153,4238 v 893"
       style="fill:none;stroke:#000000;stroke-width:2;stroke-linecap:round;stroke-linejoin:round;stroke-miterlimit:10;stroke-dasharray:none;stroke-opacity:1"
       transform="matrix(0.16,0,0,-0.16,0,1122.6667)" />
    <path
       id="path130"
       d="M 6766,3059 V 5131"
       style="fill:none;stroke:#000000;stroke-width:2;stroke-linecap:round;stroke-linejoin:round;stroke-miterlimit:10;stroke-dasharray:none;stroke-opacity:1"
       transform="matrix(0.16,0,0,-0.16,0,1122.6667)" />
    <path
       id="path131"
       d="M 3270,5073 H 6649"
       style="fill:none;stroke:#000000;stroke-width:2;stroke-linecap:round;stroke-linejoin:round;stroke-miterlimit:10;stroke-dasharray:none;stroke-opacity:1"
       transform="matrix(0.16,0,0,-0.16,0,1122.6667)" />
    <path
       id="path132"
       d="m 3270,5092 v -38 l -117,19 z"
       style="fill:#000000;fill-opacity:1;fill-rule:nonzero;stroke:#000000;stroke-width:1;stroke-linecap:round;stroke-linejoin:miter;stroke-miterlimit:10;stroke-dasharray:none;stroke-opacity:1"
       transform="matrix(0.16,0,0,-0.16,0,1122.6667)" />
    <path
       id="path133"
       d="m 6649,5092 v -38 l 117,19 z"
       style="fill:#000000;fill-opacity:1;fill-rule:nonzero;stroke:#000000;stroke-width:1;stroke-linecap:round;stroke-linejoin:miter;stroke-miterlimit:10;stroke-dasharray:none;stroke-opacity:1"
       transform="matrix(0.16,0,0,-0.16,0,1122.6667)" />
    <text
       id="text133"
       xml:space="preserve"
       transform="matrix(0.16,0,0,0.16,763.2,305.06667)"
       clip-path="url(#clipPath134)"><tspan
         id="tspan133"
         style="font-variant:normal;font-weight:normal;font-size:195.998px;font-family:Arial;writing-mode:lr-tb;fill:#000000;fill-opacity:1;fill-rule:nonzero;stroke:none"
         x="0"
         y="0">LEN</tspan></text>
    <path
       id="path135"
       d="M 3059,3215 H 2347"
       style="fill:none;stroke:#000000;stroke-width:2;stroke-linecap:round;stroke-linejoin:round;stroke-miterlimit:10;stroke-dasharray:none;stroke-opacity:1"
       transform="matrix(0.16,0,0,-0.16,0,1122.6667)"
       clip-path="url(#clipPath136)" />
    <path
       id="path137"
       d="M 3059,2625 H 2347"
       style="fill:none;stroke:#000000;stroke-width:2;stroke-linecap:round;stroke-linejoin:round;stroke-miterlimit:10;stroke-dasharray:none;stroke-opacity:1"
       transform="matrix(0.16,0,0,-0.16,0,1122.6667)"
       clip-path="url(#clipPath138)" />
    <path
       id="path139"
       d="M 2406,3098 V 2742"
       style="fill:none;stroke:#000000;stroke-width:2;stroke-linecap:round;stroke-linejoin:round;stroke-miterlimit:10;stroke-dasharray:none;stroke-opacity:1"
       transform="matrix(0.16,0,0,-0.16,0,1122.6667)"
       clip-path="url(#clipPath140)" />
    <path
       id="path141"
       d="m 2386,3098 h 39 l -19,117 z"
       style="fill:#000000;fill-opacity:1;fill-rule:nonzero;stroke:#000000;stroke-width:1;stroke-linecap:round;stroke-linejoin:miter;stroke-miterlimit:10;stroke-dasharray:none;stroke-opacity:1"
       transform="matrix(0.16,0,0,-0.16,0,1122.6667)"
       clip-path="url(#clipPath142)" />
    <path
       id="path143"
       d="m 2386,2742 h 39 l -19,-117 z"
       style="fill:#000000;fill-opacity:1;fill-rule:nonzero;stroke:#000000;stroke-width:1;stroke-linecap:round;stroke-linejoin:miter;stroke-miterlimit:10;stroke-dasharray:none;stroke-opacity:1"
       transform="matrix(0.16,0,0,-0.16,0,1122.6667)"
       clip-path="url(#clipPath144)" />
    <text
       id="text144"
       xml:space="preserve"
       transform="matrix(0,-0.16,0.16,0,378.56,689.22667)"
       clip-path="url(#clipPath145)"><tspan
         id="tspan144"
         style="font-variant:normal;font-weight:normal;font-size:195.998px;font-family:Arial;writing-mode:lr-tb;fill:#000000;fill-opacity:1;fill-rule:nonzero;stroke:none"
         x="0"
         y="0">ECC</tspan></text>
  </g>
</svg>
